<?xml version="1.0" encoding="utf-8"?><svg viewBox="0 0 33 32" xmlns="http://www.w3.org/2000/svg" xmlns:xlink="http://www.w3.org/1999/xlink"><style>:root>svg{display:none}:root>svg:target{display:block}</style><svg fill="none" viewBox="0 0 32 32" id="city" xmlns="http://www.w3.org/2000/svg"><path d="M7.554 18.564l14.393-9.97a.592.592 0 01.905.703l-6.076 16.42c-.206.557-.963.606-1.162.076l-1.93-5.121a.568.568 0 00-.474-.368l-5.44-.595c-.563-.062-.704-.807-.216-1.145z" fill="#A7A7A7"/><rect x=".5" y=".5" width="31" height="31" rx="15.5" stroke="#A7A7A7"/></svg><svg fill="none" viewBox="0 0 33 32" id="like" xmlns="http://www.w3.org/2000/svg"><path d="M16.5 23.012l-1.088-.99C11.55 18.52 9 16.21 9 13.376a4.085 4.085 0 014.125-4.125c1.305 0 2.557.607 3.375 1.568a4.491 4.491 0 013.375-1.568A4.085 4.085 0 0124 13.375c0 2.835-2.55 5.145-6.413 8.655l-1.087.982z" fill="#A7A7A7"/></svg><svg fill="none" viewBox="0 0 32 32" id="search" xmlns="http://www.w3.org/2000/svg"><path fill-rule="evenodd" clip-rule="evenodd" d="M9.7 15.65a5.95 5.95 0 1110.236 4.127.848.848 0 00-.159.159A5.95 5.95 0 019.7 15.65zm10.725 5.977a7.65 7.65 0 111.202-1.202l3.124 3.124a.85.85 0 01-1.202 1.202l-3.124-3.124z" fill="#A7A7A7"/></svg></svg>